<svg width="832" height="262" viewBox="0 0 832 262" fill="none" xmlns="http://www.w3.org/2000/svg">
<path d="M457.307 33.591L374.397 33.6118C371.173 30.9771 368.732 27.7184 365.82 24.7647L357.334 16.1672C359.365 13.4077 362.568 14.4408 364.739 16.188C367.769 18.6355 369.863 12.3469 374.896 17.4984C376.838 19.4883 375.811 22.2964 374.016 24.7578C375.943 26.9903 379.472 27.4826 382.655 26.6783C384.763 26.1445 388.028 23.7316 387.813 20.9166C385.241 19.1001 382.814 17.2488 383.348 14.309C383.827 11.6535 386.655 8.99107 389.72 9.89242C391.197 10.3223 393.228 12.7213 394.012 14.101L392.417 19.7865C398.546 22.8649 408.593 25.5412 411.56 17.8728C408.877 17.7758 406.554 17.7134 405.182 16.292C403.809 14.8706 403.857 12.0279 404.585 9.92016C405.133 8.33933 408.302 7.57665 410.111 7.10517C410.493 5.2678 410.853 2.07841 412.469 1.03146C414.556 -0.320567 417.128 -0.362168 418.979 1.01759C420.83 2.39735 421.122 5.143 421.35 7.33397C422.917 7.63905 425.947 8.10359 426.717 9.35855C427.805 11.1404 427.764 14.2952 426.648 15.8829C425.531 17.4707 422.91 17.8867 420.29 18.1848C422.675 25.1599 434.656 23.3295 439.1 19.2803C438.434 17.5123 437.519 15.5432 437.602 14.5032C437.693 13.3314 439.37 11.4733 440.494 10.5511C443.045 8.46413 446.415 10.4194 447.628 12.7005C450.166 17.4568 444.252 20.2025 443.725 21.0206C443.503 21.3742 443.822 22.3103 444.099 22.8441C446.678 27.6976 453.882 28.488 457.37 24.7994C456.073 22.6431 455.165 20.251 456.045 18.4552C457.189 16.1187 459.526 14.5864 462.188 15.6957C469.434 18.7257 466.785 11.7159 473.885 15.7096L469.198 20.5977L463.991 26.505C461.897 28.8832 459.956 31.088 457.321 33.5841L457.307 33.591Z" fill="#8E997E"/>
<path d="M415.339 78.964L420.733 89.6276C412.684 89.0036 406.284 88.6292 398.907 89.5513L374.182 64.8474C374.141 57.0681 374.598 50.0375 376.11 42.3691L426.044 42.6118C417.294 47.0423 411.013 51.036 409.272 59.9247C409.668 66.5115 412.226 72.7932 415.346 78.957L415.339 78.964Z" fill="#8E997E"/>
<path d="M415.727 142.599C405.133 136.775 395.87 129.135 388.749 118.11C402.859 122.541 417.384 121.536 430.281 113.874C432.7 112.439 435.245 109.555 437.062 107.26C439.738 103.869 439.807 100.049 440.931 95.334L451.573 100.076C445.749 117.778 432.687 133.697 415.727 142.599Z" fill="#8E997E"/>
<path d="M426.169 56.6453C425.712 50.849 428.776 45.6835 434.288 44.5742C437.609 43.9016 440.369 47.4238 439.87 50.7935C439.121 55.9035 436.673 59.9665 433.997 65.3468C441.617 65.3884 450.942 58.1568 449.057 49.3236C448.592 47.1534 446.117 45.5449 443.191 42.5427L455.331 42.3555C456.85 49.7812 457.807 57.5328 456.961 65.1735L438.247 83.7552L428.208 64.7783C427.015 62.5249 426.419 59.703 426.176 56.6523L426.169 56.6453Z" fill="#8E997E"/>
<path d="M415.291 105.956L407.629 98.024C406.319 96.672 404.807 95.4309 403.851 93.8709C410.118 90.5428 415.887 91.0837 422.141 92.5743C423.701 102.205 421.42 100.056 415.291 105.956Z" fill="#8E997E"/>
<path d="M412.289 116.128C406.922 119.955 398.948 118.694 395.489 112.869C393.45 109.437 393.95 104.917 395.995 100.902C398.512 102.317 400.529 104.14 402.131 106.29L412.289 116.128Z" fill="#8E997E"/>
<path d="M388.202 92.7688C388.458 93.6771 382.724 96.7971 380.935 103.141C378.065 95.6462 375.999 88.262 375.271 79.2832C377.725 80.7947 387.668 90.8621 388.202 92.7688Z" fill="#8E997E"/>
<path d="M454.617 38.2649C428.305 39.4436 401.653 39.4159 374.778 38.2857C401.389 37.1209 427.41 37.1487 454.617 38.2649Z" fill="#8E997E"/>
<path d="M453.404 96.1998C449.625 95.3955 446.678 94.4387 442.782 92.8371L456.274 79.5664L453.404 96.1998Z" fill="#8E997E"/>
<path d="M421.676 105.547C420.525 109.451 418.432 111.732 415.339 114.457L398.872 97.8581C398.74 97.137 400.384 95.5423 400.987 96.1386L415.367 110.428L421.683 105.547H421.676Z" fill="#8E997E"/>
<path d="M389.838 89.1151L378.287 77.4738C376.214 75.3799 372.913 73.7228 374.654 69.6875L394.657 89.8292C394.213 90.1828 392.889 90.9247 392.237 91.0426C391.585 91.1604 390.594 89.8777 389.838 89.1151Z" fill="#8E997E"/>
<path d="M440.875 89.4819C440.362 89.9811 439.35 87.6445 439.634 86.9858L456.6 69.9434C458.576 73.2298 455.914 74.8869 453.924 76.8144L440.882 89.4819H440.875Z" fill="#8E997E"/>
<path d="M96.875 260.433L75.7141 260.468C76.5183 256.876 82.6337 259.352 82.5851 255.594L82.4118 241.838L62.485 241.04C61.1261 240.985 59.2679 242.288 59.2748 243.599L59.3996 257.806C62.0135 258.367 64.0381 257.57 66.028 260.399L44.7215 260.371C46.6906 258.291 48.2714 258.423 50.4139 257.611C50.7605 256.599 51.343 254.179 51.343 252.855L51.3707 225.738C51.3707 223.374 49.5472 222.077 47.4117 221.842L45.6575 221.648C45.2276 221.599 45.1722 220.275 45.5119 220.004C45.8517 219.734 46.8362 219.443 47.4117 219.484C53.6449 219.949 64.1629 219.256 65.9171 220.074C66.3886 220.296 65.1475 221.419 64.5789 221.544L59.4066 222.695L59.3372 237.74C64.4611 239.134 77.4682 239.127 82.5297 237.761L82.6129 226.369C82.6614 219.859 75.0485 223.09 76.4144 219.422L86.2044 219.817C90.0733 219.977 93.1032 218.34 97.4643 220.309L90.94 223.187V257.327C93.4637 258.118 95.0446 257.327 96.875 260.433Z" fill="#8E997E"/>
<path d="M250.236 244.3C248.773 241.36 244.793 239.821 242.492 241.853L242.367 256.926L247.712 258.736C248.135 258.881 248.919 259.81 249.085 260.157C249.3 260.622 247.699 260.899 247.102 260.864C240.758 260.497 234.795 260.622 227.91 260.622C229.942 258.978 231.537 258.472 234.081 257.474L234.407 223.028C232.084 222.321 230.85 222.113 228.153 220.622C232.265 219.603 235.066 219.874 238.796 219.77C244.065 219.617 249.203 219.021 254.452 219.617C259.43 220.186 264.283 224.29 264.928 229.345C265.573 234.399 261.129 238.192 256.594 240.327L264.401 252.87C266.488 256.226 268.714 257.848 272.562 260.698C267.348 261.877 265.698 259.748 258.515 260.899L250.236 244.3ZM252.746 236.562C257.059 232.832 255.644 225.226 250.722 222.98C248.253 221.857 244.911 222.3 242.408 222.807L242.492 238.525C245.965 238.864 249.966 238.961 252.746 236.562Z" fill="#8E997E"/>
<path d="M214.813 259.596C213.821 261.766 211.436 260.837 209.523 260.781L194.671 260.303C196.758 258.875 197.354 258.597 199.587 257.398C199.344 256.302 198.291 254.534 197.25 253.383L185.581 240.397C185.013 246.568 185.408 251.615 185.554 257.28C187.939 258.029 189.665 258.445 191.315 260.656L170.168 260.351C172.547 257.835 174.107 257.453 176.845 256.323L176.929 226.391C176.942 220.484 169.933 223.361 170.813 219.541L189.943 219.694C190.47 219.694 191.939 220.297 191.627 220.532C191.315 220.768 190.456 221.365 190.088 221.489L185.332 223.119C184.978 228.333 184.874 233.151 185.845 238.455L199.414 224.894C199.837 224.471 200.301 223.119 200.35 222.682C200.454 221.794 194.775 222.294 194.879 220.304C201.064 219.77 206.819 219.056 213.932 220.248C205.959 223.958 200.031 226.911 195.004 233.429C194.519 234.053 193.215 235.148 192.993 235.869C192.771 236.59 194.082 237.873 194.699 238.58C199.088 243.572 203.248 248.412 207.387 253.633C209.405 256.17 211.097 257.703 214.813 259.582V259.596Z" fill="#8E997E"/>
<path d="M396.574 261.308L381.237 261.086C381.064 260.968 380.793 259.533 381.085 259.464L383.088 258.999C383.997 258.791 386.181 258.999 386.576 258.271C386.971 257.543 387.602 255.622 387.595 254.777L387.449 228.665C387.415 223.007 382.908 222.654 379.594 221.725C379.164 221.607 379.719 219.887 380.239 219.887L393.53 219.832L423.892 250.076C424.779 245.805 424.19 242.158 423.982 238.122C423.725 233.179 423.434 228.298 422.914 223.375C420.349 222.446 419.129 222.501 416.903 220.373L429.806 219.367C430.201 219.34 431.269 219.589 431.512 219.693C431.872 219.853 432.344 220.699 432.025 220.927C429.244 222.924 426.596 222.266 426.624 225.607L426.949 261.433C426.076 262.93 423.074 261.1 422.117 260.129L410.663 248.53L397.351 235.633C395 233.352 393.024 231.445 390.161 229.525L390.784 257.557C392.379 258.25 394.154 258.756 395.936 259.214L397.434 259.595C397.836 259.699 397.038 261.308 396.574 261.301V261.308Z" fill="#8E997E"/>
<path d="M545.671 241.151L532.213 241.186L532.186 257.667C537.753 258.402 542.995 258.624 548.396 257.861C555.482 256.863 554.914 249.021 558.685 249.042L556.834 261.21L540.353 260.773L526.472 260.593C522.77 260.544 519.484 262.576 515.552 259.962L523.553 257.792L523.595 229.15C523.595 227.111 522.999 224.06 522.389 222.604C519.497 222.168 517.078 222.604 515.795 220.025L536.193 219.914L555.766 219.9C556.487 223.866 557.257 226.993 555.087 230.536L550.753 223.728C550.254 222.937 547.626 222.355 546.628 222.362L532.262 222.459L532.137 238.454C536.256 238.94 540.506 239.058 544.673 238.073C545.928 237.775 546.663 234.606 547.072 233.421L547.626 231.791C549.783 225.482 549.713 249.076 549.152 248.335C546.191 246.462 546.836 244.41 545.685 241.145L545.671 241.151Z" fill="#8E997E"/>
<path d="M817.754 241.095L804.615 241.082L804.65 257.673C809.787 258.346 814.634 258.498 819.702 258.069C828.168 257.347 827.447 248.403 831.219 249.436L829.187 261.209L815.632 260.779C809.552 260.585 803.644 260.544 797.626 260.648C794.395 260.703 791.448 262.326 788.1 260.038L796.087 257.653L795.921 225.724C795.886 219.706 788.814 224.33 789.049 220.136L817.678 219.817C821.505 219.775 824.729 219.893 828.723 220.226L828.813 228.795C828.813 229.198 827.156 230.39 826.941 230.043L825.651 227.97C824.466 226.064 823.141 222.521 820.479 222.507L804.705 222.444L804.553 238.696L815.598 238.634C820.347 238.606 818.281 229.593 821.803 231.659L821.97 246.365C821.97 246.885 821.047 248.251 820.777 247.966C820.507 247.682 819.82 246.871 819.675 246.462L817.761 241.095H817.754Z" fill="#8E997E"/>
<path d="M756.809 223.859V257.223L761.6 258.727C762.175 258.908 763 259.691 763.236 260.107C763.472 260.523 762.044 260.974 761.544 260.953L740.141 260.315C742.921 258.332 745.285 257.646 748.246 256.28L748.128 223.928C736.813 223.644 737.236 222.327 732.216 228.192L731.245 229.329C730.961 229.662 729.81 228.019 729.956 227.575L733.207 217.57C735.877 219.539 737.062 220.67 739.253 220.621L756.733 220.26C760.705 220.177 765.698 221.363 769.13 219.463C769.878 219.047 771.397 217.889 772.062 218.042L772.43 228.456C772.444 228.83 772.007 229.967 771.688 230.051C771.21 230.175 769.809 229.725 769.608 229.295L766.994 223.727L756.809 223.852V223.859Z" fill="#8E997E"/>
<path d="M698.464 246.393C694.63 245.72 690.046 245.859 686.351 246.344C684.576 249.603 683.321 253.749 682.392 257.361C684.923 258.353 686.122 258.679 688.459 260.176C682.635 260.634 678.211 260.71 672.373 260.211L678.731 257.098L692.834 220.593C693.118 219.865 694.248 218.922 694.74 218.721C695.351 218.465 696.98 219.449 697.313 220.267L710.216 252.092C711.852 256.127 713.149 257.472 718.12 260.239L696.64 260.322C698.921 259.012 700.204 258.519 702.721 257.41C702.076 253.985 700.939 249.18 698.464 246.393ZM688.355 243.529L697.444 243.404C696.141 238.454 695.032 235.611 692.501 230.993C691.419 232.04 686.989 241.997 688.362 243.522L688.355 243.529Z" fill="#8E997E"/>
<path d="M348.144 246.205L335.754 245.914L332.19 255.663C331.018 258.866 338.326 258.297 338 260.322H321.852C325.929 257.84 328.085 257.763 329.493 254.054L342.396 220.08C342.687 219.31 345.28 218.749 345.779 219.324C346.279 219.9 346.91 220.898 347.34 221.911L352.706 234.564L360.631 254.394C361.934 257.653 363.945 257.777 367.786 260.343L346.473 260.391C348.463 258.81 349.669 258.512 352.38 257.549C351.569 254.019 350.189 250.151 348.151 246.205H348.144ZM347.09 243.12L343.741 234.287C343.401 233.399 342.292 232.2 341.28 231.167L336.925 243.196C340.878 243.543 343.2 243.487 347.09 243.12Z" fill="#8E997E"/>
<path d="M647.898 223.797L647.919 257.674C650.505 258.506 653.383 257.674 654.464 260.953L631.722 260.655C632.409 256.655 639.419 259.345 639.391 254.242L639.204 224.012C635.155 223.658 631.577 223.395 627.93 224.116C625.143 224.67 624.338 228.213 620.872 229.427C621.627 225.412 622.868 221.329 624.304 217.48C626.904 219.637 628.152 220.67 630.426 220.656L656.621 220.455C658.888 220.434 660.066 219.457 663.089 217.695L663.311 229.129C663.318 229.538 662.25 230.377 661.987 230.238C661.599 230.037 660.739 229.406 660.538 228.976L658.083 223.741L647.905 223.79L647.898 223.797Z" fill="#8E997E"/>
<path d="M137.602 246.074L125.732 246.018C124.332 247.648 121.212 255.559 121.704 257.306C123.985 258.325 125.184 258.776 127.521 260.169C121.662 260.648 117.308 260.662 111.422 260.169L117.696 257.008L131.639 220.919C131.945 220.136 133.234 219.019 133.817 218.742C134.399 218.465 135.876 219.74 136.16 220.406L143.315 237.275L151.74 257.701C153.903 258.277 154.964 258.339 156.843 260.384L135.661 260.357L142.095 256.98L137.602 246.074ZM136.105 243.46C135.869 241.664 135.633 239.951 135.252 239.147L131.189 230.522L126.37 243.411L136.105 243.467V243.46Z" fill="#8E997E"/>
<path d="M604.189 242.898C605.514 245.443 605.479 250.449 604.467 252.993C600.376 263.289 587.41 263.192 578.508 258.963C578.196 256.086 578.099 252.757 578.73 250.074C579.728 245.81 582.016 256.89 588.333 258.54C592.257 259.566 596.327 258.81 598.858 255.878C599.8 254.782 600.632 252.023 600.237 250.823C599.807 249.506 598.046 247.121 596.639 246.524L584.942 241.532C580.782 239.757 577.884 235.646 577.662 231.541C577.419 227.118 579.964 222.229 584.172 220.26C589.594 217.723 595.439 218.485 601.083 220.676L602.123 228.262C602.186 228.698 601.388 230.071 600.979 229.995C598.4 229.468 598.601 225.703 595.231 223.068C591.522 220.163 586.01 221.39 583.805 225.426C582.703 227.436 584.027 230.82 585.996 231.971C593.332 236.263 600.931 236.63 604.189 242.898Z" fill="#8E997E"/>
<path d="M25.6824 255.082C20.6556 263.589 8.89649 262.597 0.77741 259.006L0.853678 250.055C4.05694 248.1 3.59933 256.059 9.72157 258.264C16.2737 260.621 22.2711 256.621 22.493 252.44C23.0269 242.282 2.03236 245.902 0.13953 232.832C-0.553816 228.062 1.33902 223.333 5.7695 220.685C11.2053 217.433 17.9516 218.591 23.7272 220.83L24.157 230.204C20.6348 229.629 20.6764 227.292 19.3938 225.081C16.8769 220.74 10.2347 220.303 6.92046 223.978C5.09696 226.003 5.24256 228.894 7.02446 230.752C12.2523 236.209 21.0994 234.76 26.0499 242.338C28.324 245.812 28.019 251.123 25.6824 255.089V255.082Z" fill="#8E997E"/>
<path d="M469.986 260.454L449.539 260.267L455.606 256.696L455.904 236.915C455.98 232.089 456.694 227.388 455.377 222.826L450.163 221.266C449.747 220.302 451.654 219.29 452.992 219.401C458.011 219.817 463.274 219.741 468.127 219.429C477.73 218.805 462.803 223.457 464.182 223.873V257.854C466.588 258.471 468.155 257.507 469.986 260.454Z" fill="#8E997E"/>
<path d="M307.035 260.364L286.963 260.232C289.244 258.658 290.416 258.097 292.551 257.008L293.057 239.362C293.196 234.537 293.355 230.072 293.238 225.17C293.168 222.285 290.208 222.188 287.192 221.176C286.651 220.996 288.238 219.422 288.828 219.436L298.916 219.657C302.064 219.727 304.019 219.068 307.819 220.094C305.274 221.897 303.984 222.424 301.308 223.596L301.232 257.785C303.658 258.312 305.142 257.715 307.028 260.364H307.035Z" fill="#8E997E"/>
</svg>
