<svg width="41" height="51" viewBox="0 0 41 51" fill="none" xmlns="http://www.w3.org/2000/svg">
<path d="M35.1683 11.8165L6.00244 11.8238C4.86829 10.897 4.00975 9.75065 2.98536 8.71162L0 5.68723C0.714634 4.7165 1.84146 5.07992 2.60488 5.69455C3.67073 6.55553 4.40732 4.34333 6.17805 6.15553C6.86098 6.85553 6.5 7.84333 5.86829 8.70918C6.54634 9.49455 7.78781 9.66772 8.90732 9.38479C9.64879 9.19699 10.7976 8.34821 10.7219 7.35796C9.81707 6.71894 8.96342 6.06772 9.15123 5.03357C9.31952 4.09943 10.3146 3.16284 11.3927 3.47992C11.9122 3.63113 12.6268 4.47504 12.9024 4.9604L12.3415 6.9604C14.4976 8.04333 18.0317 8.98479 19.0756 6.28723C18.1317 6.25309 17.3146 6.23114 16.8317 5.73114C16.3488 5.23114 16.3658 4.23113 16.6219 3.48967C16.8146 2.93357 17.9293 2.66528 18.5659 2.49943C18.7 1.85309 18.8268 0.731135 19.3951 0.362842C20.1293 -0.112768 21.0341 -0.127402 21.6854 0.357964C22.3366 0.84333 22.439 1.80918 22.5195 2.57992C23.0707 2.68723 24.1366 2.85065 24.4073 3.29211C24.7902 3.91894 24.7756 5.0287 24.3829 5.58723C23.9902 6.14577 23.0683 6.29211 22.1463 6.39699C22.9854 8.85065 27.2 8.20675 28.7634 6.78235C28.5293 6.1604 28.2073 5.46772 28.2366 5.10187C28.2683 4.68967 28.8585 4.03601 29.2537 3.71162C30.1512 2.97748 31.3366 3.66528 31.7634 4.46772C32.6561 6.14089 30.5756 7.10675 30.3902 7.39455C30.3122 7.51894 30.4244 7.84821 30.522 8.03601C31.4293 9.74333 33.9634 10.0214 35.1902 8.72382C34.7341 7.96528 34.4146 7.12382 34.7244 6.49211C35.1268 5.67016 35.9488 5.13114 36.8854 5.52138C39.4341 6.58723 38.5024 4.12138 41 5.52626L39.3512 7.24577L37.5195 9.32382C36.7829 10.1604 36.1 10.936 35.1732 11.8141L35.1683 11.8165Z" fill="white"/>
<path d="M20.4049 27.7775L22.3025 31.5287C19.4708 31.3092 17.2195 31.1775 14.6244 31.5019L5.92687 22.8116C5.91223 20.075 6.07321 17.6019 6.60492 14.9043L24.1708 14.9897C21.0927 16.5482 18.883 17.9531 18.2708 21.0799C18.4098 23.397 19.3098 25.6067 20.4074 27.775L20.4049 27.7775Z" fill="white"/>
<path d="M20.5414 50.163C16.8146 48.1142 13.5561 45.4264 11.0512 41.5483C16.0146 43.1069 21.1244 42.7532 25.661 40.0581C26.5122 39.5532 27.4073 38.5386 28.0463 37.7313C28.9878 36.5386 29.0122 35.1947 29.4073 33.5361L33.1512 35.2044C31.1024 41.4313 26.5073 47.0313 20.5414 50.163Z" fill="white"/>
<path d="M24.2146 19.9262C24.0537 17.8872 25.1317 16.0701 27.0707 15.6799C28.239 15.4433 29.2098 16.6823 29.0342 17.8677C28.7707 19.6653 27.9098 21.0945 26.9683 22.9872C29.6488 23.0019 32.9293 20.458 32.2659 17.3506C32.1025 16.5872 31.2317 16.0214 30.2025 14.9653L34.4732 14.8994C35.0073 17.5116 35.3439 20.2384 35.0464 22.9262L28.4634 29.4628L24.9317 22.7872C24.5122 21.9945 24.3025 21.0019 24.2171 19.9287L24.2146 19.9262Z" fill="white"/>
<path d="M20.3879 37.2722L17.6928 34.482C17.2318 34.0064 16.7001 33.5698 16.3635 33.021C18.5684 31.8503 20.5977 32.0405 22.7977 32.5649C23.3465 35.9527 22.544 35.1966 20.3879 37.2722Z" fill="white"/>
<path d="M19.3318 40.8512C17.444 42.1976 14.6391 41.7537 13.422 39.7049C12.7049 38.4976 12.8806 36.9073 13.6001 35.4951C14.4854 35.9927 15.1952 36.6341 15.7586 37.3902L19.3318 40.8512Z" fill="white"/>
<path d="M10.8586 32.6336C10.9488 32.9531 8.93176 34.0506 8.30249 36.2823C7.29274 33.6457 6.56591 31.0482 6.30981 27.8896C7.17323 28.4214 10.6708 31.9628 10.8586 32.6336Z" fill="white"/>
<path d="M34.222 13.4603C24.9659 13.875 15.5903 13.8652 6.1366 13.4677C15.4976 13.0579 24.6512 13.0677 34.222 13.4603Z" fill="white"/>
<path d="M33.7952 33.8415C32.4659 33.5585 31.4293 33.2219 30.0586 32.6585L34.8049 27.9902L33.7952 33.8415Z" fill="white"/>
<path d="M22.6342 37.1292C22.2293 38.5024 21.4927 39.3048 20.4049 40.2634L14.6123 34.4243C14.5659 34.1707 15.144 33.6097 15.3562 33.8195L20.4147 38.8463L22.6366 37.1292H22.6342Z" fill="white"/>
<path d="M11.4342 31.3488L7.37074 27.2537C6.64147 26.5171 5.4805 25.9342 6.09269 24.5146L13.1293 31.6C12.9732 31.7244 12.5073 31.9854 12.2781 32.0268C12.0488 32.0683 11.7 31.6171 11.4342 31.3488Z" fill="white"/>
<path d="M29.3879 31.4777C29.2074 31.6533 28.8513 30.8313 28.9513 30.5996L34.9196 24.6045C35.6147 25.7606 34.6781 26.3435 33.9781 27.0216L29.3903 31.4777H29.3879Z" fill="white"/>
</svg>
